<svg width="20" height="28" viewBox="0 0 20 28" fill="none" xmlns="http://www.w3.org/2000/svg">
<path d="M10.0003 0.666748C4.84033 0.666748 0.666992 4.84008 0.666992 10.0001C0.666992 15.5601 6.56033 23.2267 8.98699 26.1467C9.52033 26.7867 10.4937 26.7867 11.027 26.1467C13.4403 23.2267 19.3337 15.5601 19.3337 10.0001C19.3337 4.84008 15.1603 0.666748 10.0003 0.666748ZM10.0003 13.3334C8.16033 13.3334 6.66699 11.8401 6.66699 10.0001C6.66699 8.16008 8.16033 6.66675 10.0003 6.66675C11.8403 6.66675 13.3337 8.16008 13.3337 10.0001C13.3337 11.8401 11.8403 13.3334 10.0003 13.3334Z" fill="url(#paint0_linear_1578_764)" stroke="white"/>
<defs>
<linearGradient id="paint0_linear_1578_764" x1="0.666992" y1="13.6467" x2="19.3337" y2="13.6467" gradientUnits="userSpaceOnUse">
<stop stop-color="#FF4A0D"/>
<stop offset="1" stop-color="#FF0843"/>
</linearGradient>
</defs>
</svg>
